# AST/ASF file generated using VICON BodyLanguage
# -----------------------------------------------
:version 1.10
:name VICON
:units
  mass 1.0
  length 0.45
  angle deg
:documentation
   .ast/.asf automatically generated from VICON data using
   VICON BodyBuilder and BodyLanguage model FoxedUp or BRILLIANT.MOD
:root
   order TX TY TZ RX RY RZ
   axis XYZ
   position 0 0 0  
   orientation 0 0 0 
:bonedata
  begin
     id 1 
     name lhipjoint
     direction 0.700308 -0.549349 0.455834 
     length 2.59063 
     axis 0 0 0  XYZ
  end
  begin
     id 2 
     name lfemur
     direction 0.34202 -0.939693 0  
     length 6.31066  
     axis 0 0 20  XYZ
    dof rx ry rz
    limits (-160.0 20.0)
           (-70.0 70.0)
           (-60.0 70.0)
  end
  begin
     id 3 
     name ltibia
     direction 0.34202 -0.939693 0   
     length 7.36093   
     axis 0 0 20   XYZ
    dof rx
    limits (-10.0 170.0)
  end
  begin
     id 4 
     name lfoot
     direction 0.0905332 -0.248738 0.96433   
     length 2.0233   
     axis -90 7.62852e-016 20   XYZ
    dof rx rz
    limits (-45.0 90.0)
           (-70.0 20.0)
  end
  begin
     id 5 
     name ltoes
     direction 1.53573e-011 -4.21855e-011 1   
     length 1.01524   
     axis -90 7.62852e-016 20   XYZ
    dof rx
    limits (-90.0 20.0)
  end
  begin
     id 6 
     name rhipjoint
     direction -0.61416 -0.607328 0.503944   
     length 2.34332  
     axis 0 0 0  XYZ 
  end
  begin
     id 7 
     name rfemur
     direction -0.34202 -0.939693 0   
     length 6.58548   
     axis 0 0 -20   XYZ
    dof rx ry rz
    limits (-160.0 20.0)
           (-70.0 70.0)
           (-70.0 60.0)
  end
  begin
     id 8 
     name rtibia
     direction -0.34202 -0.939693 0   
     length 7.20707   
     axis 0 0 -20   XYZ
    dof rx
    limits (-10.0 170.0)
 end
 begin
     id 9 
     name rfoot
     direction -0.136772 -0.375778 0.916561   
     length 1.92184  
     axis -90 -7.62852e-016 -20   XYZ
    dof rx rz
    limits (-45.0 90.0)
           (-20.0 70.0)
  end
  begin
     id 10 
     name rtoes
     direction -1.53535e-011 -4.21828e-011 1   
     length 0.951089   
     axis -90 -7.62852e-016 -20   XYZ
    dof rx
    limits (-90.0 20.0)
  end
  begin
     id 11 
     name lowerback
     direction -0.0444974 0.988086 -0.147332   
     length 1.9609   
     axis 0 0 0   XYZ
    dof rx ry rz
    limits (-20.0 45.0)
           (-30.0 30.0)
           (-30.0 30.0)
  end
  begin
     id 12 
     name upperback
     direction 0.00613146 0.999513 0.0306081   
     length 1.94944   
     axis 0 0 0   XYZ
    dof rx ry rz
    limits (-20.0 45.0)
           (-30.0 30.0)
           (-30.0 30.0)
  end
  begin
     id 13 
     name thorax
     direction 0.0254621 0.994518 0.101418   
     length 2.0119   
     axis 0 0 0   XYZ
    dof rx ry rz
    limits (-20.0 45.0)
           (-30.0 30.0)
           (-30.0 30.0)
  end
  begin
     id 14 
     name lowerneck
     direction 0.0168698 0.977854 0.208608   
     length 1.6375   
     axis 0 0 0   XYZ
    dof rx ry rz
    limits (-20.0 45.0)
           (-30.0 30.0)
           (-30.0 30.0)
  end
  begin
     id 15 
     name upperneck
     direction -0.0283988 0.989338 -0.142843   
     length 1.6851   
     axis 0 0 0   XYZ
    dof rx ry rz
    limits (-20.0 45.0)
           (-30.0 30.0)
           (-30.0 30.0)
  end
  begin
     id 16
     name head
     direction -0.0129422 0.99741 -0.0707489  
     length 1.69029  
     axis 0 0 0   XYZ
    dof rx ry rz
    limits (-20.0 45.0)
           (-30.0 30.0)
           (-30.0 30.0)
  end
  begin
     id 17 
     name lclavicle
     direction 0.820295 0.564628 -0.0911715  
     length 3.16484  
     axis 0 0 0   XYZ
    dof ry rz
    limits (-20.0 10.0)
           (0.0 20.0)
  end
  begin
     id 18 
     name lhumerus
     direction 1 -4.48969e-011 1.00186e-027   
     length 5.17853   
     axis 180 -30 -90   XYZ
    dof rx ry rz
    limits (-60.0 90.0)
           (-90.0 90.0)
           (-90.0 90.0)
  end
  begin
     id 19
     name lradius
     direction 1 -4.48966e-011 -1.52922e-027   
     length 3.40399   
     axis 180 -30 -90   XYZ
    dof rx
    limits (-10.0 170.0)
  end
  begin
     id 20
     name lwrist
     direction 1 -4.48981e-011 -3.80893e-027   
     length 1.70199   
     axis 1.1049e-015 90 90   XYZ
    dof ry
    limits (-180.0 0.0)
 end
  begin
     id 21 
     name lhand
     direction 1 -4.48957e-011 -7.61786e-027   
     length 0.708964   
     axis 4.86085e-015 90 90   XYZ
    dof rx rz
    limits (-90.0 90.0)
           (-45.0 45.0)
  end
  begin
     id 22 
     name lfingers
     direction 1 -4.48929e-011 -1.52357e-026   
     length 0.571585   
     axis 9.7217e-015 90 90   XYZ
    dof rx
    limits (0.0 90.0)
  end
  begin
     id 23
     name lthumb
     direction 0.707107 -6.34905e-011 0.707107   
     length 0.820685   
     axis -90 45 2.85299e-015   XYZ
    dof rx rz
    limits (-45.0 45.0)
           (-45.0 45.0)
  end
  begin
     id 24 
     name rclavicle
     direction -0.858602 0.463947 -0.218075   
     length 3.35137  
     axis 0 0 0   XYZ 
    dof ry rz
    limits (-10.0 20.0)
           (-20.0 0.0)
  end
  begin
     id 25 
     name rhumerus
     direction -1 -4.48969e-011 -1.98511e-027  
     length 5.42351   
     axis 180 30 90   XYZ
    dof rx ry rz
    limits (-90.0 60.0)
           (-90.0 90.0)
           (-90.0 90.0)
  end
  begin
     id 26 
     name rradius
     direction -1 -4.48961e-011 -2.82624e-027   
     length 3.42066   
     axis 180 30 90   XYZ
    dof rx
    limits (-10.0 170.0)
  end
  begin
     id 27 
     name rwrist
     direction -1 -4.48966e-011 -3.80893e-027   
     length 1.71033   
     axis 1.1049e-015 -90 -90   XYZ
    dof ry
    limits (-180.0 0.0)
  end
  begin
     id 28
     name rhand
     direction -1 -4.48964e-011 -7.61786e-027   
     length 0.743608   
     axis 4.86085e-015 -90 -90   XYZ
    dof rx rz
    limits (-90.0 90.0)
           (-45.0 45.0)
  end
  begin
     id 29
     name rfingers
     direction -1 -4.48961e-011 -1.52357e-026   
     length 0.599516   
     axis 9.7217e-015 -90 -90   XYZ
    dof rx
    limits (0.0 90.0)
  end
  begin
     id 30
     name rthumb
     direction -0.707107 -6.34913e-011 0.707107   
     length 0.860789   
     axis -90 -45 -2.85299e-015   XYZ
    dof rx rz
    limits (-45.0 45.0)
           (-45.0 45.0)
  end
:hierarchy
  begin
    root lhipjoint rhipjoint lowerback
    lhipjoint lfemur
    lfemur ltibia
    ltibia lfoot
    lfoot ltoes
    rhipjoint rfemur
    rfemur rtibia
    rtibia rfoot
    rfoot rtoes
    lowerback upperback
    upperback thorax
    thorax lowerneck lclavicle rclavicle
    lowerneck upperneck
    upperneck head
    lclavicle lhumerus
    lhumerus lradius
    lradius lwrist
    lwrist lhand lthumb
    lhand lfingers
    rclavicle rhumerus
    rhumerus rradius
    rradius rwrist
    rwrist rhand rthumb
    rhand rfingers
  end

#!OML:ASF E:\mmandel\Project 1\Capture day 1\Session 2\Subject.ASF
:FULLY-SPECIFIED
:DEGREES
384
root 0.216981 2.50252 -7.32668 -25.7514 77.8422 24.1267
lowerback 34.6753 -0.30708 -0.150257
upperback 14.8477 1.22155 -0.158621
thorax -1.26705 1.38426 -0.481657
lowerneck -5.56091 1.17776 4.15285
upperneck 32.6346 5.30644 -9.21368
head 11.9311 2.35929 -3.494
rclavicle -2.30466e-014 -2.62396e-014
rhumerus -33.3326 26.8433 -60.7089
rradius 74.5727
rwrist -37.1817
rhand -15.2566 18.3126
rfingers 7.12502
rthumb 10.9173 -11.3835
lclavicle -2.30466e-014 -2.62396e-014
lhumerus -44.6076 -54.9102 78.3364
lradius 73.5629
lwrist 46.9508
lhand -21.7909 -23.5028
lfingers 7.12502
lthumb 4.61069 6.42703
rfemur -70.2084 -18.9115 27.601
rtibia 61.0937
rfoot 4.45495 -10.6757
rtoes -5.04343
lfemur -84.9371 18.9965 -28.6492
ltibia 91.2781
lfoot 23.5425 -10.1362
ltoes -7.60217
385
root 0.233726 2.51702 -7.32485 -28.2789 77.7559 21.1386
lowerback 34.9432 -0.623813 0.616947
upperback 14.9265 1.09302 -0.0462514
thorax -1.27057 1.36369 -0.730494
lowerneck -5.5872 1.39601 4.11083
upperneck 32.1353 5.53381 -9.17927
head 11.7522 2.45106 -3.43276
rclavicle -4.93234e-015 -3.10104e-014
rhumerus -34.5102 26.6002 -61.0872
rradius 75.3558
rwrist -38.2569
rhand -16.1454 18.0883
rfingers 7.12502
rthumb 10.0599 -11.6512
lclavicle -4.93234e-015 -3.10104e-014
lhumerus -45.7735 -54.138 79.2034
lradius 74.2803
lwrist 47.5833
lhand -21.9228 -23.1076
lfingers 7.12502
lthumb 4.48333 6.82494
rfemur -70.5138 -19.2047 28.4517
rtibia 61.0336
rfoot 4.6457 -11.2546
rtoes -3.92032
lfemur -85.5876 18.9319 -28.2957
ltibia 91.422
lfoot 23.7028 -10.4191
ltoes -8.87598
386
root 0.26069 2.52719 -7.3213 -29.0858 77.8761 19.8289
lowerback 35.434 -0.802871 0.831695
upperback 14.7745 0.951632 0.10201
thorax -1.6053 1.29336 -0.654505
lowerneck -5.57738 1.28647 3.9511
upperneck 31.535 5.3462 -9.35989
head 11.4935 2.31876 -3.47917
rclavicle -1.59028e-015 7.95139e-016
rhumerus -36.0318 26.5416 -61.4323
rradius 76.2833
rwrist -39.2928
rhand -16.7636 17.8873
rfingers 7.12502
rthumb 9.4634 -11.8802
lclavicle -1.59028e-015 7.95139e-016
lhumerus -47.4371 -53.2495 80.625
lradius 74.9378
lwrist 47.8212
lhand -22.504 -22.9122
lfingers 7.12502
lthumb 3.92212 7.03142
rfemur -71.0314 -19.5351 28.8991
rtibia 61.0708
rfoot 4.98287 -11.9847
rtoes -2.54849
lfemur -86.3162 18.7898 -28.4037
ltibia 91.6316
lfoot 24.3759 -10.305
ltoes -8.30913
387
root 0.253557 2.54005 -7.3204 -28.0472 77.8688 20.2727
lowerback 35.8666 -0.672669 0.494146
upperback 14.5532 1.01093 0.323492
thorax -1.99717 1.2858 -0.276063
lowerneck -5.32242 1.31754 3.84304
upperneck 30.8115 5.36619 -9.57932
head 11.1614 2.29588 -3.52218
rclavicle -7.92343e-015 -3.97569e-015
rhumerus -37.5962 26.5631 -61.6613
rradius 77.1629
rwrist -40.4152
rhand -17.3845 17.7782
rfingers 7.12502
rthumb 8.86433 -12.0156
lclavicle -7.92343e-015 -3.97569e-015
lhumerus -49.099 -52.1981 82.1157
lradius 75.653
lwrist 48.2744
lhand -22.577 -22.6805
lfingers 7.12502
lthumb 3.85158 7.2644
rfemur -71.6087 -19.5681 29.1887
rtibia 60.9474
rfoot 5.57453 -12.8489
rtoes -0.705926
lfemur -86.7913 18.5188 -28.505
ltibia 91.595
lfoot 22.9195 -11.7151
ltoes -12.2581
388
root 0.291344 2.54876 -7.30996 -26.9759 77.8011 20.8076
lowerback 35.9266 -0.590828 0.375394
upperback 14.6333 1.09318 0.399481
thorax -1.93228 1.32374 -0.160224
lowerneck -5.24579 1.5209 3.82273
upperneck 30.2259 5.54986 -9.51999
head 10.9324 2.3809 -3.46134
rclavicle 3.04141e-014 -1.74931e-014
rhumerus -38.8879 26.2702 -61.9816
rradius 77.9458
rwrist -41.5225
rhand -18.4277 17.7649
rfingers 7.12502
rthumb 7.85754 -12.0691
lclavicle 3.04141e-014 -1.74931e-014
lhumerus -50.0333 -51.4988 82.9329
lradius 76.3561
lwrist 49.0168
lhand -22.5123 -22.1762
lfingers 7.12502
lthumb 3.91406 7.76759
rfemur -72.3995 -19.6201 29.5269
rtibia 61.0655
rfoot 5.91132 -13.6674
rtoes 1.22717
lfemur -87.684 18.8132 -28.9452
ltibia 91.9124
lfoot 24.177 -11.4193
ltoes -11.0886
389
root 0.310871 2.56262 -7.30532 -25.5252 77.8509 21.8828
lowerback 35.8171 -0.621353 0.324984
upperback 14.9635 1.07427 0.304742
thorax -1.5351 1.33857 -0.217281
lowerneck -5.29115 1.40429 3.79572
upperneck 29.2326 5.2718 -9.74855
head 10.5428 2.21409 -3.54701
rclavicle -2.15433e-014 -1.90833e-014
rhumerus -39.9006 25.7345 -62.3621
rradius 78.69
rwrist -42.6039
rhand -19.6372 17.6367
rfingers 7.12502
rthumb 6.69005 -12.2376
lclavicle -2.15433e-014 -1.90833e-014
lhumerus -50.4541 -50.9544 83.2591
lradius 76.9954
lwrist 49.9314
lhand -22.7295 -21.717
lfingers 7.12502
lthumb 3.70433 8.23057
rfemur -72.9739 -19.7909 29.6382
rtibia 61.1132
rfoot 6.22141 -14.0251
rtoes 1.54156
lfemur -88.1654 18.9105 -29.4415
ltibia 92.0379
lfoot 24.4153 -11.6115
ltoes -11.6298
390
root 0.322928 2.58029 -7.30303 -24.2647 77.8704 22.7237
lowerback 35.7508 -0.698917 0.32953
upperback 15.2152 1.00451 0.191029
thorax -1.23716 1.32628 -0.309142
lowerneck -5.25711 1.37464 3.93868
upperneck 28.256 5.15153 -10.1424
head 10.173 2.12773 -3.70519
rclavicle 2.32578e-014 -1.43125e-014
rhumerus -40.8712 25.2608 -62.7699
rradius 79.3573
rwrist -43.7736
rhand -20.4063 17.4244
rfingers 7.12502
rthumb 5.94755 -12.4722
lclavicle 2.32578e-014 -1.43125e-014
lhumerus -51.097 -50.2752 83.7058
lradius 77.6213
lwrist 50.9857
lhand -23.13 -21.6934
lfingers 7.12502
lthumb 3.31753 8.2605
rfemur -73.5724 -19.9453 29.7685
rtibia 61.1851
rfoot 6.60209 -13.9034
rtoes 0.895609
lfemur -88.6086 18.8985 -29.8276
ltibia 92.0837
lfoot 24.5607 -11.7875
ltoes -12.0734
391
root 0.336535 2.59832 -7.30299 -23.5903 77.9031 22.9051
lowerback 36.7455 -0.628054 0.0893654
upperback 14.6846 1.00523 0.43076
thorax -2.14891 1.28266 0.0407775
lowerneck -5.30676 1.61217 3.97905
upperneck 28.3234 5.55523 -10.3193
head 10.2508 2.30219 -3.73553
rclavicle 5.96354e-015 5.56597e-015
rhumerus -42.7394 25.494 -63.1252
rradius 80.1955
rwrist -45.1303
rhand -21.0159 17.1705
rfingers 7.12502
rthumb 5.35898 -12.7417
lclavicle 5.96354e-015 5.56597e-015
lhumerus -53.3377 -49.3367 85.6983
lradius 78.2878
lwrist 51.9112
lhand -23.7693 -21.8057
lfingers 7.12502
lthumb 2.70013 8.15698
rfemur -74.1783 -20.1324 29.9843
rtibia 61.1961
rfoot 6.84049 -13.4846
rtoes -0.317824
lfemur -89.1293 18.7613 -30.0803
ltibia 92.0962
lfoot 24.6678 -12.0658
ltoes -13.1047
392
root 0.34568 2.61651 -7.30521 -22.2828 77.9854 23.806
lowerback 35.9215 -0.779562 0.27445
upperback 15.4392 0.931189 0.222703
thorax -1.05123 1.30473 -0.221109
lowerneck -5.46643 2.10005 4.38785
upperneck 27.776 6.0492 -10.186
head 10.1309 2.57241 -3.69291
rclavicle -1.87355e-014 9.54166e-015
rhumerus -43.3704 24.7602 -63.4262
rradius 80.975
rwrist -46.4575
rhand -22.0749 16.85
rfingers 7.12502
rthumb 4.33645 -13.0856
lclavicle -1.87355e-014 9.54166e-015
lhumerus -53.0414 -49.0637 85.4787
lradius 78.8447
lwrist 52.9889
lhand -24.6759 -21.6455
lfingers 7.12502
lthumb 1.82456 8.32642
rfemur -74.679 -20.3253 30.0377
rtibia 61.1941
rfoot 6.95096 -13.0306
rtoes -1.77571
lfemur -89.4974 18.6731 -30.5266
ltibia 92.0591
lfoot 24.5041 -12.3697
ltoes -14.0009
393
root 0.357057 2.63309 -7.306 -21.5858 77.9401 24.1503
lowerback 36.8405 -0.67887 -0.0159772
upperback 15.0108 0.959825 0.460634
thorax -1.8252 1.27766 0.147928
lowerneck -5.32531 2.11113 4.30881
upperneck 27.5448 6.1199 -10.4366
head 10.0309 2.58037 -3.75786
rclavicle 3.76697e-014 7.95139e-016
rhumerus -45.2753 25.1493 -63.82
rradius 81.847
rwrist -47.7995
rhand -23.1484 16.5944
rfingers 7.12502
rthumb 3.29983 -13.3598
lclavicle 3.76697e-014 7.95139e-016
lhumerus -54.9786 -48.2131 87.303
lradius 79.3598
lwrist 53.7502
lhand -25.3385 -21.0468
lfingers 7.12502
lthumb 1.18466 8.92968
rfemur -75.1511 -20.4714 30.3115
rtibia 61.2557
rfoot 7.03565 -12.7584
rtoes -2.6461
lfemur -89.849 18.6669 -30.7571
ltibia 92.0863
lfoot 24.487 -12.6137
ltoes -14.5538
